<svg width="1280" height="800" viewBox="0 0 1280 800" xmlns="http://www.w3.org/2000/svg">
  <defs>
    <linearGradient id="bg" x1="0" y1="0" x2="0" y2="1">
      <stop offset="0%" stop-color="#ffffff"/>
      <stop offset="100%" stop-color="#dce7f1"/>
    </linearGradient>
  </defs>
  <rect width="1280" height="800" fill="url(#bg)"/>

  <!-- Nav bar -->
  <rect width="1280" height="56" fill="white"/>
  <rect y="55" width="1280" height="1" fill="#e2e8f0"/>
  <circle cx="30" cy="28" r="13" fill="#b91c1c"/>
  <path d="M24 22 L30 28 L24 34 M30 22 L36 28 L30 34" stroke="white" stroke-width="2" fill="none" stroke-linecap="round" stroke-linejoin="round"/>
  <rect x="50" y="20" width="148" height="16" rx="3" fill="#1e293b"/>
  <rect x="980" y="21" width="64" height="14" rx="3" fill="#e2e8f0"/>
  <rect x="1056" y="21" width="64" height="14" rx="3" fill="#e2e8f0"/>
  <circle cx="1200" cy="28" r="18" fill="#e2e8f0"/>
  <circle cx="1247" cy="28" r="14" fill="#dbeafe"/>

  <!-- Page header -->
  <rect x="40" y="82" width="240" height="26" rx="5" fill="#1e293b"/>
  <rect x="40" y="116" width="400" height="13" rx="3" fill="#94a3b8"/>
  <rect x="40" y="135" width="340" height="13" rx="3" fill="#94a3b8"/>
  <!-- Complete a form button -->
  <rect x="1040" y="82" width="196" height="40" rx="9" fill="#2563eb"/>
  <rect x="1058" y="97" width="16" height="16" rx="3" fill="rgba(255,255,255,0.4)"/>
  <rect x="1082" y="100" width="130" height="12" rx="3" fill="white"/>

  <!-- Main card -->
  <rect x="32" y="176" width="1216" height="592" rx="12" fill="white" stroke="#e2e8f0" stroke-width="1.5"/>

  <!-- Header inside card -->
  <rect x="48" y="192" width="240" height="16" rx="4" fill="#1e293b"/>
  <!-- Search bar -->
  <rect x="48" y="224" width="1200" height="36" rx="8" fill="#f8fafc" stroke="#e2e8f0" stroke-width="1.5"/>
  <rect x="64" y="238" width="14" height="14" rx="3" fill="#94a3b8"/>
  <rect x="84" y="241" width="200" height="8" rx="3" fill="#cbd5e1"/>
  <rect x="48" y="260" width="1200" height="1" fill="#e2e8f0"/>

  <!-- Table header -->
  <rect x="48" y="277" width="1200" height="44" fill="#f8fafc"/>
  <rect x="64" y="291" width="140" height="12" rx="3" fill="#475569"/>
  <rect x="340" y="291" width="80" height="12" rx="3" fill="#475569"/>
  <rect x="560" y="291" width="60" height="12" rx="3" fill="#475569"/>
  <rect x="760" y="291" width="80" height="12" rx="3" fill="#475569"/>
  <rect x="968" y="291" width="60" height="12" rx="3" fill="#475569"/>

  <!-- Row 1  Submitted green -->
  <rect x="48" y="321" width="1200" height="54" fill="white"/>
  <rect x="48" y="374" width="1200" height="1" fill="#f1f5f9"/>
  <rect x="64" y="337" width="200" height="13" rx="3" fill="#1e293b"/>
  <rect x="340" y="337" width="140" height="13" rx="3" fill="#64748b"/>
  <rect x="560" y="337" width="100" height="13" rx="3" fill="#64748b"/>
  <rect x="760" y="337" width="90" height="13" rx="3" fill="#64748b"/>
  <rect x="964" y="331" width="92" height="26" rx="13" fill="#dcfce7"/>
  <rect x="982" y="337" width="58" height="13" rx="3" fill="#166534"/>
  <circle cx="1228" cy="348" r="3" fill="#94a3b8"/>
  <circle cx="1238" cy="348" r="3" fill="#94a3b8"/>
  <circle cx="1248" cy="348" r="3" fill="#94a3b8"/>

  <!-- Row 2  Submitted green -->
  <rect x="48" y="375" width="1200" height="54" fill="white"/>
  <rect x="48" y="428" width="1200" height="1" fill="#f1f5f9"/>
  <rect x="64" y="391" width="185" height="13" rx="3" fill="#1e293b"/>
  <rect x="340" y="391" width="70" height="13" rx="3" fill="#64748b"/>
  <rect x="560" y="391" width="110" height="13" rx="3" fill="#64748b"/>
  <rect x="760" y="391" width="90" height="13" rx="3" fill="#64748b"/>
  <rect x="964" y="385" width="92" height="26" rx="13" fill="#dcfce7"/>
  <rect x="982" y="391" width="58" height="13" rx="3" fill="#166534"/>
  <circle cx="1228" cy="402" r="3" fill="#94a3b8"/>
  <circle cx="1238" cy="402" r="3" fill="#94a3b8"/>
  <circle cx="1248" cy="402" r="3" fill="#94a3b8"/>

  <!-- Row 3  Submitted green -->
  <rect x="48" y="429" width="1200" height="54" fill="white"/>
  <rect x="48" y="482" width="1200" height="1" fill="#f1f5f9"/>
  <rect x="64" y="445" width="160" height="13" rx="3" fill="#1e293b"/>
  <rect x="340" y="445" width="100" height="13" rx="3" fill="#64748b"/>
  <rect x="560" y="445" width="80" height="13" rx="3" fill="#64748b"/>
  <rect x="760" y="445" width="90" height="13" rx="3" fill="#64748b"/>
  <rect x="964" y="439" width="92" height="26" rx="13" fill="#dcfce7"/>
  <rect x="982" y="445" width="58" height="13" rx="3" fill="#166534"/>
  <circle cx="1228" cy="456" r="3" fill="#94a3b8"/>
  <circle cx="1238" cy="456" r="3" fill="#94a3b8"/>
  <circle cx="1248" cy="456" r="3" fill="#94a3b8"/>

  <!-- Row 4  In Progress amber -->
  <rect x="48" y="483" width="1200" height="54" fill="white"/>
  <rect x="48" y="536" width="1200" height="1" fill="#f1f5f9"/>
  <rect x="64" y="499" width="195" height="13" rx="3" fill="#1e293b"/>
  <rect x="340" y="499" width="80" height="13" rx="3" fill="#64748b"/>
  <rect x="560" y="499" width="120" height="13" rx="3" fill="#64748b"/>
  <rect x="760" y="499" width="90" height="13" rx="3" fill="#64748b"/>
  <rect x="956" y="493" width="110" height="26" rx="13" fill="#fef9c3"/>
  <rect x="974" y="499" width="74" height="13" rx="3" fill="#854d0e"/>
  <circle cx="1228" cy="510" r="3" fill="#94a3b8"/>
  <circle cx="1238" cy="510" r="3" fill="#94a3b8"/>
  <circle cx="1248" cy="510" r="3" fill="#94a3b8"/>

  <!-- Row 5  Submitted green -->
  <rect x="48" y="537" width="1200" height="54" fill="white"/>
  <rect x="48" y="590" width="1200" height="1" fill="#f1f5f9"/>
  <rect x="64" y="553" width="170" height="13" rx="3" fill="#1e293b"/>
  <rect x="340" y="553" width="90" height="13" rx="3" fill="#64748b"/>
  <rect x="560" y="553" width="100" height="13" rx="3" fill="#64748b"/>
  <rect x="760" y="553" width="90" height="13" rx="3" fill="#64748b"/>
  <rect x="964" y="547" width="92" height="26" rx="13" fill="#dcfce7"/>
  <rect x="982" y="553" width="58" height="13" rx="3" fill="#166534"/>
  <circle cx="1228" cy="564" r="3" fill="#94a3b8"/>
  <circle cx="1238" cy="564" r="3" fill="#94a3b8"/>
  <circle cx="1248" cy="564" r="3" fill="#94a3b8"/>

  <!-- Pagination -->
  <rect x="48" y="602" width="1200" height="1" fill="#e2e8f0"/>
  <rect x="64" y="616" width="80" height="10" rx="3" fill="#94a3b8"/>
  <rect x="1056" y="609" width="56" height="28" rx="6" fill="#f8fafc" stroke="#e2e8f0" stroke-width="1.5"/>
  <rect x="1124" y="609" width="28" height="28" rx="6" fill="#f8fafc" stroke="#e2e8f0" stroke-width="1.5"/>
  <rect x="1156" y="616" width="80" height="12" rx="3" fill="#94a3b8"/>
  <rect x="1244" y="609" width="28" height="28" rx="6" fill="#f8fafc" stroke="#e2e8f0" stroke-width="1.5"/>
</svg>
