<svg width="1280" height="800" viewBox="0 0 1280 800" xmlns="http://www.w3.org/2000/svg">
  <defs>
    <linearGradient id="bg" x1="0" y1="0" x2="0" y2="1">
      <stop offset="0%" stop-color="#ffffff"/>
      <stop offset="100%" stop-color="#dce7f1"/>
    </linearGradient>
  </defs>
  <rect width="1280" height="800" fill="url(#bg)"/>

  <!-- Nav bar -->
  <rect width="1280" height="56" fill="white"/>
  <rect y="55" width="1280" height="1" fill="#e2e8f0"/>
  <circle cx="30" cy="28" r="13" fill="#b91c1c"/>
  <path d="M24 22 L30 28 L24 34 M30 22 L36 28 L30 34" stroke="white" stroke-width="2" fill="none" stroke-linecap="round" stroke-linejoin="round"/>
  <rect x="50" y="20" width="148" height="16" rx="3" fill="#1e293b"/>
  <rect x="980" y="21" width="64" height="14" rx="3" fill="#e2e8f0"/>
  <rect x="1056" y="21" width="64" height="14" rx="3" fill="#e2e8f0"/>
  <circle cx="1200" cy="28" r="18" fill="#e2e8f0"/>
  <circle cx="1247" cy="28" r="14" fill="#dbeafe"/>

  <!-- Page header -->
  <rect x="40" y="80" width="24" height="24" rx="5" fill="#e2e8f0"/>
  <rect x="72" y="84" width="220" height="22" rx="4" fill="#1e293b"/>
  <!-- Draft save indicator -->
  <rect x="312" y="87" width="10" height="10" rx="5" fill="#86efac"/>
  <rect x="328" y="89" width="80" height="8" rx="3" fill="#94a3b8"/>
  <!-- Buttons -->
  <rect x="984" y="78" width="120" height="36" rx="8" fill="white" stroke="#e2e8f0" stroke-width="1.5"/>
  <rect x="1002" y="91" width="84" height="12" rx="3" fill="#64748b"/>
  <rect x="1116" y="78" width="120" height="36" rx="8" fill="#2563eb"/>
  <rect x="1134" y="91" width="84" height="12" rx="3" fill="white"/>

  <!-- Two-column layout -->
  <!-- Left column: field list -->
  <rect x="32" y="134" width="760" height="648" rx="12" fill="white" stroke="#e2e8f0" stroke-width="1.5"/>

  <!-- Add field button at top -->
  <rect x="48" y="150" width="728" height="40" rx="8" fill="#eff6ff" stroke="#bfdbfe" stroke-width="1.5"/>
  <rect x="332" y="161" width="12" height="12" rx="3" fill="#2563eb"/>
  <rect x="350" y="163" width="100" height="10" rx="3" fill="#2563eb"/>

  <!-- Field 1: Text field -->
  <rect x="48" y="206" width="728" height="68" rx="8" fill="white" stroke="#e2e8f0" stroke-width="1.5"/>
  <rect x="64" y="220" width="12" height="12" rx="2" fill="#cbd5e1"/>
  <rect x="84" y="220" width="72" height="12" rx="3" fill="#1e293b"/>
  <rect x="84" y="238" width="60" height="8" rx="3" fill="#94a3b8"/>
  <rect x="580" y="218" width="68" height="16" rx="8" fill="#f0fdf4" stroke="#bbf7d0" stroke-width="1"/>
  <rect x="590" y="222" width="48" height="8" rx="3" fill="#166534"/>
  <rect x="660" y="218" width="28" height="16" rx="8" fill="#f8fafc" stroke="#e2e8f0" stroke-width="1"/>
  <rect x="700" y="218" width="28" height="16" rx="8" fill="#f8fafc" stroke="#e2e8f0" stroke-width="1"/>
  <rect x="732" y="218" width="28" height="16" rx="8" fill="#f8fafc" stroke="#e2e8f0" stroke-width="1"/>
  <!-- Text input preview -->
  <rect x="64" y="254" width="560" height="10" rx="3" fill="#f1f5f9"/>

  <!-- Field 2: Date field (active/selected) -->
  <rect x="48" y="290" width="728" height="68" rx="8" fill="#eff6ff" stroke="#3b82f6" stroke-width="2"/>
  <rect x="64" y="304" width="12" height="12" rx="2" fill="#93c5fd"/>
  <rect x="84" y="304" width="60" height="12" rx="3" fill="#1e293b"/>
  <rect x="84" y="322" width="80" height="8" rx="3" fill="#94a3b8"/>
  <rect x="580" y="302" width="68" height="16" rx="8" fill="#eff6ff" stroke="#bfdbfe" stroke-width="1"/>
  <rect x="590" y="306" width="48" height="8" rx="3" fill="#2563eb"/>
  <rect x="660" y="302" width="28" height="16" rx="8" fill="#f8fafc" stroke="#e2e8f0" stroke-width="1"/>
  <rect x="700" y="302" width="28" height="16" rx="8" fill="#f8fafc" stroke="#e2e8f0" stroke-width="1"/>
  <rect x="732" y="302" width="28" height="16" rx="8" fill="#f8fafc" stroke="#e2e8f0" stroke-width="1"/>
  <rect x="64" y="338" width="200" height="10" rx="3" fill="#bfdbfe"/>

  <!-- Field 3: Radio group -->
  <rect x="48" y="374" width="728" height="68" rx="8" fill="white" stroke="#e2e8f0" stroke-width="1.5"/>
  <rect x="64" y="388" width="12" height="12" rx="2" fill="#cbd5e1"/>
  <rect x="84" y="388" width="100" height="12" rx="3" fill="#1e293b"/>
  <rect x="84" y="406" width="70" height="8" rx="3" fill="#94a3b8"/>
  <rect x="64" y="422" width="12" height="12" rx="6" fill="#e2e8f0"/>
  <rect x="82" y="425" width="60" height="8" rx="3" fill="#94a3b8"/>
  <rect x="164" y="422" width="12" height="12" rx="6" fill="#e2e8f0"/>
  <rect x="182" y="425" width="60" height="8" rx="3" fill="#94a3b8"/>
  <rect x="264" y="422" width="12" height="12" rx="6" fill="#e2e8f0"/>
  <rect x="282" y="425" width="60" height="8" rx="3" fill="#94a3b8"/>

  <!-- Field 4: Textarea -->
  <rect x="48" y="458" width="728" height="80" rx="8" fill="white" stroke="#e2e8f0" stroke-width="1.5"/>
  <rect x="64" y="472" width="12" height="12" rx="2" fill="#cbd5e1"/>
  <rect x="84" y="472" width="88" height="12" rx="3" fill="#1e293b"/>
  <rect x="64" y="492" width="600" height="8" rx="3" fill="#f1f5f9"/>
  <rect x="64" y="506" width="500" height="8" rx="3" fill="#f1f5f9"/>
  <rect x="64" y="520" width="420" height="8" rx="3" fill="#f1f5f9"/>

  <!-- Field 5: Select -->
  <rect x="48" y="554" width="728" height="68" rx="8" fill="white" stroke="#e2e8f0" stroke-width="1.5"/>
  <rect x="64" y="568" width="12" height="12" rx="2" fill="#cbd5e1"/>
  <rect x="84" y="568" width="80" height="12" rx="3" fill="#1e293b"/>
  <rect x="64" y="588" width="300" height="20" rx="4" fill="#f8fafc" stroke="#e2e8f0" stroke-width="1"/>
  <rect x="78" y="594" width="100" height="8" rx="3" fill="#94a3b8"/>
  <rect x="344" y="592" width="12" height="12" rx="2" fill="#94a3b8"/>

  <!-- Add field button bottom -->
  <rect x="48" y="638" width="728" height="40" rx="8" fill="#f8fafc" stroke="#e2e8f0" stroke-width="1.5" stroke-dasharray="6 3"/>
  <rect x="338" y="649" width="10" height="10" rx="3" fill="#cbd5e1"/>
  <rect x="354" y="651" width="80" height="8" rx="3" fill="#94a3b8"/>

  <!-- Right column: field editor panel -->
  <rect x="808" y="134" width="440" height="648" rx="12" fill="white" stroke="#e2e8f0" stroke-width="1.5"/>
  <rect x="824" y="150" width="180" height="14" rx="3" fill="#1e293b"/>
  <rect x="824" y="172" width="408" height="1" fill="#e2e8f0"/>

  <!-- Label field -->
  <rect x="824" y="188" width="60" height="10" rx="3" fill="#475569"/>
  <rect x="824" y="202" width="408" height="32" rx="6" fill="#f8fafc" stroke="#e2e8f0" stroke-width="1.5"/>
  <rect x="836" y="214" width="160" height="10" rx="3" fill="#1e293b"/>

  <!-- Help text field -->
  <rect x="824" y="248" width="100" height="10" rx="3" fill="#475569"/>
  <rect x="824" y="262" width="408" height="32" rx="6" fill="#f8fafc" stroke="#e2e8f0" stroke-width="1.5"/>
  <rect x="836" y="274" width="120" height="10" rx="3" fill="#94a3b8"/>

  <!-- Placeholder field -->
  <rect x="824" y="308" width="80" height="10" rx="3" fill="#475569"/>
  <rect x="824" y="322" width="408" height="32" rx="6" fill="#f8fafc" stroke="#e2e8f0" stroke-width="1.5"/>

  <!-- Divider -->
  <rect x="824" y="372" width="408" height="1" fill="#e2e8f0"/>
  <rect x="824" y="380" width="80" height="10" rx="3" fill="#1e293b"/>

  <!-- Required toggle -->
  <rect x="824" y="400" width="260" height="10" rx="3" fill="#64748b"/>
  <rect x="1180" y="396" width="44" height="18" rx="9" fill="#2563eb"/>
  <circle cx="1215" cy="405" r="7" fill="white"/>

  <!-- Min length toggle -->
  <rect x="824" y="432" width="200" height="10" rx="3" fill="#64748b"/>
  <rect x="1180" y="428" width="44" height="18" rx="9" fill="#e2e8f0"/>
  <circle cx="1193" cy="437" r="7" fill="white"/>

  <!-- Max length toggle -->
  <rect x="824" y="464" width="180" height="10" rx="3" fill="#64748b"/>
  <rect x="1180" y="460" width="44" height="18" rx="9" fill="#e2e8f0"/>
  <circle cx="1193" cy="469" r="7" fill="white"/>

  <!-- Remove button -->
  <rect x="824" y="720" width="408" height="36" rx="8" fill="white" stroke="#fecaca" stroke-width="1.5"/>
  <rect x="936" y="730" width="100" height="14" rx="3" fill="#ef4444" opacity="0.7"/>
</svg>
