<svg width="1280" height="800" viewBox="0 0 1280 800" xmlns="http://www.w3.org/2000/svg">
  <defs>
    <linearGradient id="bg" x1="0" y1="0" x2="0" y2="1">
      <stop offset="0%" stop-color="#ffffff"/>
      <stop offset="100%" stop-color="#dce7f1"/>
    </linearGradient>
  </defs>
  <rect width="1280" height="800" fill="url(#bg)"/>

  <!-- Nav bar -->
  <rect width="1280" height="56" fill="white"/>
  <rect y="55" width="1280" height="1" fill="#e2e8f0"/>
  <circle cx="30" cy="28" r="13" fill="#b91c1c"/>
  <path d="M24 22 L30 28 L24 34 M30 22 L36 28 L30 34" stroke="white" stroke-width="2" fill="none" stroke-linecap="round" stroke-linejoin="round"/>
  <rect x="50" y="20" width="148" height="16" rx="3" fill="#1e293b"/>
  <rect x="980" y="21" width="64" height="14" rx="3" fill="#e2e8f0"/>
  <rect x="1056" y="21" width="64" height="14" rx="3" fill="#e2e8f0"/>
  <circle cx="1200" cy="28" r="18" fill="#e2e8f0"/>
  <circle cx="1247" cy="28" r="14" fill="#dbeafe"/>

  <!-- Main content area -->
  <rect x="32" y="76" width="1216" height="712" rx="12" fill="white" stroke="#e2e8f0" stroke-width="1.5"/>

  <!-- Top action bar -->
  <rect x="32" y="76" width="1216" height="56" rx="12" fill="white"/>
  <rect x="32" y="128" width="1216" height="4" fill="white"/>
  <rect x="48" y="90" width="24" height="24" rx="5" fill="#f1f5f9"/>
  <rect x="80" y="93" width="160" height="18" rx="4" fill="#1e293b"/>
  <rect x="900" y="89" width="100" height="30" rx="7" fill="white" stroke="#e2e8f0" stroke-width="1.5"/>
  <rect x="918" y="100" width="64" height="10" rx="3" fill="#64748b"/>
  <rect x="1012" y="89" width="120" height="30" rx="7" fill="#2563eb"/>
  <rect x="1030" y="100" width="84" height="10" rx="3" fill="white"/>
  <rect x="1144" y="89" width="88" height="30" rx="7" fill="white" stroke="#e2e8f0" stroke-width="1.5"/>
  <rect x="1162" y="100" width="52" height="10" rx="3" fill="#64748b"/>
  <rect x="32" y="131" width="1216" height="1" fill="#e2e8f0"/>

  <!-- Section nav tabs -->
  <rect x="48" y="148" width="120" height="32" rx="0" fill="transparent"/>
  <rect x="48" y="176" width="120" height="3" rx="1.5" fill="#2563eb"/>
  <rect x="60" y="157" width="96" height="12" rx="3" fill="#1e293b"/>
  <rect x="184" y="157" width="110" height="12" rx="3" fill="#94a3b8"/>
  <rect x="310" y="157" width="96" height="12" rx="3" fill="#94a3b8"/>
  <rect x="422" y="157" width="80" height="12" rx="3" fill="#94a3b8"/>
  <rect x="48" y="179" width="1200" height="1" fill="#e2e8f0"/>

  <!-- Completing as bar -->
  <rect x="48" y="196" width="1200" height="36" rx="6" fill="#f8fafc" stroke="#e2e8f0" stroke-width="1"/>
  <rect x="64" y="207" width="80" height="10" rx="3" fill="#64748b"/>
  <rect x="160" y="207" width="100" height="10" rx="3" fill="#1e293b"/>
  <rect x="276" y="207" width="4" height="10" rx="2" fill="#cbd5e1"/>
  <rect x="288" y="207" width="60" height="10" rx="3" fill="#64748b"/>

  <!-- Form fields section -->
  <!-- Date + time row -->
  <rect x="48" y="252" width="580" height="60" rx="8" fill="white" stroke="#e2e8f0" stroke-width="1.5"/>
  <rect x="64" y="264" width="60" height="10" rx="3" fill="#475569"/>
  <rect x="64" y="280" width="100" height="16" rx="4" fill="#f8fafc" stroke="#e2e8f0" stroke-width="1"/>
  <rect x="180" y="280" width="100" height="16" rx="4" fill="#f8fafc" stroke="#e2e8f0" stroke-width="1"/>
  <rect x="300" y="264" width="80" height="10" rx="3" fill="#475569"/>
  <rect x="300" y="280" width="100" height="16" rx="4" fill="#f8fafc" stroke="#e2e8f0" stroke-width="1"/>

  <!-- Teacher select -->
  <rect x="48" y="328" width="580" height="56" rx="8" fill="white" stroke="#e2e8f0" stroke-width="1.5"/>
  <rect x="64" y="340" width="60" height="10" rx="3" fill="#475569"/>
  <rect x="64" y="356" width="520" height="20" rx="5" fill="#f8fafc" stroke="#e2e8f0" stroke-width="1"/>
  <rect x="76" y="362" width="140" height="8" rx="3" fill="#1e293b"/>
  <rect x="560" y="360" width="12" height="12" rx="2" fill="#94a3b8"/>

  <!-- Observation notes textarea -->
  <rect x="48" y="400" width="580" height="100" rx="8" fill="white" stroke="#2563eb" stroke-width="2"/>
  <rect x="64" y="412" width="120" height="10" rx="3" fill="#475569"/>
  <rect x="64" y="428" width="530" height="8" rx="3" fill="#94a3b8"/>
  <rect x="64" y="442" width="480" height="8" rx="3" fill="#94a3b8"/>
  <rect x="64" y="456" width="510" height="8" rx="3" fill="#94a3b8"/>
  <rect x="64" y="470" width="300" height="8" rx="3" fill="#94a3b8"/>

  <!-- Rating radio group -->
  <rect x="48" y="516" width="580" height="72" rx="8" fill="white" stroke="#e2e8f0" stroke-width="1.5"/>
  <rect x="64" y="528" width="140" height="10" rx="3" fill="#475569"/>
  <rect x="64" y="546" width="14" height="14" rx="7" fill="#2563eb"/>
  <rect x="84" y="549" width="60" height="8" rx="3" fill="#1e293b"/>
  <rect x="176" y="546" width="14" height="14" rx="7" fill="#e2e8f0"/>
  <rect x="196" y="549" width="60" height="8" rx="3" fill="#64748b"/>
  <rect x="288" y="546" width="14" height="14" rx="7" fill="#e2e8f0"/>
  <rect x="308" y="549" width="70" height="8" rx="3" fill="#64748b"/>
  <rect x="410" y="546" width="14" height="14" rx="7" fill="#e2e8f0"/>
  <rect x="430" y="549" width="68" height="8" rx="3" fill="#64748b"/>
  <rect x="64" y="566" width="200" height="8" rx="3" fill="#cbd5e1"/>

  <!-- Right side: section progress card -->
  <rect x="664" y="252" width="584" height="200" rx="10" fill="white" stroke="#e2e8f0" stroke-width="1.5"/>
  <rect x="680" y="268" width="140" height="12" rx="3" fill="#1e293b"/>
  <rect x="680" y="288" width="548" height="1" fill="#e2e8f0"/>
  <!-- Progress items -->
  <rect x="680" y="304" width="14" height="14" rx="7" fill="#22c55e"/>
  <rect x="700" y="307" width="120" height="8" rx="3" fill="#1e293b"/>
  <rect x="680" y="326" width="14" height="14" rx="7" fill="#22c55e"/>
  <rect x="700" y="329" width="100" height="8" rx="3" fill="#1e293b"/>
  <rect x="680" y="348" width="14" height="14" rx="7" fill="#3b82f6"/>
  <rect x="700" y="351" width="140" height="8" rx="3" fill="#2563eb"/>
  <rect x="680" y="370" width="14" height="14" rx="7" fill="#e2e8f0"/>
  <rect x="700" y="373" width="100" height="8" rx="3" fill="#94a3b8"/>
  <rect x="680" y="392" width="14" height="14" rx="7" fill="#e2e8f0"/>
  <rect x="700" y="395" width="120" height="8" rx="3" fill="#94a3b8"/>
  <rect x="680" y="420" width="548" height="1" fill="#e2e8f0"/>
  <rect x="680" y="428" width="80" height="8" rx="3" fill="#22c55e"/>

  <!-- Draft saved indicator -->
  <rect x="664" y="468" width="584" height="56" rx="10" fill="#f0fdf4" stroke="#bbf7d0" stroke-width="1.5"/>
  <rect x="680" y="482" width="14" height="14" rx="7" fill="#22c55e"/>
  <rect x="702" y="485" width="120" height="8" rx="3" fill="#166534"/>
  <rect x="836" y="488" width="80" height="4" rx="2" fill="#86efac"/>

  <!-- Bottom action bar -->
  <rect x="32" y="732" width="1216" height="56" rx="12" fill="white"/>
  <rect x="32" y="731" width="1216" height="1" fill="#e2e8f0"/>
  <rect x="48" y="746" width="100" height="14" rx="3" fill="#94a3b8"/>
  <rect x="980" y="742" width="120" height="30" rx="7" fill="white" stroke="#e2e8f0" stroke-width="1.5"/>
  <rect x="998" y="753" width="84" height="10" rx="3" fill="#64748b"/>
  <rect x="1112" y="742" width="120" height="30" rx="7" fill="#2563eb"/>
  <rect x="1130" y="753" width="84" height="10" rx="3" fill="white"/>
</svg>
